# xmcd CD database file
#
# Track frame offsets:
#	225
#	9553
#	21040
#	33506
#	44472
#	55419
#	66583
#	76491
#	87064
#	97702
#	108308
#	119110
#	134577
#	143554
#	153411
#	163145
#	174970
#	189161
#	198343
#	211460
#
# Disc length: 2952 seconds
#
# Revision: 1
# Processed by: cddbd v1.5.2PL0 Copyright (c) Steve Scherf et al.
# Submitted via: jetAudio 7
#
DISCID=120b8514
DTITLE=Floyd Cramer - Dallas and The Best Of The West
DYEAR=1900
DGENRE=Country
TTITLE0=Dallas
TTITLE1=The Incredible Hulk
TTITLE2=Taxi (Angela)
TTITLE3=All In The Family (Those Were The Days)
TTITLE4=The Waltons
TTITLE5=Little House On The Prairie (The Little House)
TTITLE6=The Young And The Restless (Nadia's Theme)
TTITLE7=M*A*S*H (Suicide Is Painless)
TTITLE8=Laverne And Shirley (Making Our Dreams Come True)
TTITLE9=Knot's Landing
TTITLE10=The Lone Ranger
TTITLE11=High Noon (Do Not Forsake Me)
TTITLE12=Gunsmoke
TTITLE13=The Virginian
TTITLE14=The Magnificent Seven
TTITLE15=Rawhide
TTITLE16=Big Valley
TTITLE17=Bonanza
TTITLE18=Cool Water
TTITLE19=High Chaparral
EXTD=
EXTT0=
EXTT1=
EXTT2=
EXTT3=
EXTT4=
EXTT5=
EXTT6=
EXTT7=
EXTT8=
EXTT9=
EXTT10=
EXTT11=
EXTT12=
EXTT13=
EXTT14=
EXTT15=
EXTT16=
EXTT17=
EXTT18=
EXTT19=
PLAYORDER=
